<?xml version="1.0" standalone="no"?>
<!DOCTYPE svg PUBLIC "-//W3C//DTD SVG 20010904//EN"
 "http://www.w3.org/TR/2001/REC-SVG-20010904/DTD/svg10.dtd">
<svg version="1.0" xmlns="http://www.w3.org/2000/svg"
 width="600.000000pt" height="600.000000pt" viewBox="0 0 600.000000 600.000000"
 preserveAspectRatio="xMidYMid meet">
<metadata>
Created by potrace 1.11, written by Peter Selinger 2001-2013
</metadata>
<g transform="translate(0.000000,600.000000) scale(0.100000,-0.100000)"
fill="#000000" stroke="none">
<path d="M2853 5725 c0 -8 4 -15 9 -15 4 0 8 4 8 9 0 6 -4 12 -8 15 -5 3 -9
-1 -9 -9z"/>
<path d="M2805 5710 c-10 -12 -25 -18 -32 -16 -7 3 -15 0 -19 -6 -4 -6 -3 -8
3 -5 6 4 13 1 16 -7 4 -10 0 -12 -14 -9 -11 3 -19 0 -19 -6 0 -7 5 -9 13 -5 7
5 7 1 -2 -10 -8 -9 -23 -15 -33 -13 -15 4 -16 2 -7 -15 9 -16 8 -19 -2 -13 -9
6 -10 3 -5 -10 5 -15 4 -16 -9 -5 -13 11 -14 10 -9 -5 6 -14 4 -16 -6 -10 -8
5 -11 4 -6 -3 4 -6 12 -10 19 -8 7 1 8 1 4 -2 -4 -2 -2 -11 5 -20 9 -11 5 -10
-17 4 -16 10 -26 13 -22 7 5 -8 3 -13 -5 -13 -8 0 -9 -3 -3 -8 6 -4 17 -16 25
-27 11 -16 11 -17 0 -7 -22 19 -29 15 -24 -14 3 -17 1 -23 -7 -19 -7 5 -7 0 2
-16 12 -23 11 -23 -6 -9 -10 8 -16 10 -12 3 4 -6 2 -13 -3 -15 -6 -2 -12 -10
-13 -18 -2 -8 -6 -21 -10 -27 -6 -9 -3 -11 8 -7 11 5 14 2 9 -9 -3 -9 -13 -18
-22 -20 -11 -3 -8 -5 8 -6 23 -2 24 -3 5 -10 -14 -6 -21 -19 -23 -41 -2 -22 1
-29 9 -24 8 4 9 3 5 -5 -4 -6 -11 -9 -16 -6 -12 7 -19 -23 -16 -66 2 -27 -1
-36 -11 -32 -7 3 -13 1 -13 -5 0 -6 6 -13 13 -15 6 -3 2 -6 -10 -6 -13 -1 -23
-6 -23 -12 0 -5 4 -8 8 -5 5 3 9 -1 9 -10 0 -10 -7 -12 -20 -8 -11 3 -17 2
-14 -3 8 -12 -7 -34 -24 -36 -8 -2 -20 -6 -27 -11 -11 -7 -12 -4 -3 12 8 15 8
23 -1 28 -6 4 -8 3 -4 -4 3 -6 -3 -17 -14 -25 -11 -7 -17 -18 -12 -23 4 -4 -1
-2 -10 5 -14 11 -21 11 -33 1 -8 -7 -12 -17 -8 -24 3 -6 -4 -2 -17 9 -13 11
-20 14 -16 8 6 -11 -6 -18 -18 -10 -2 1 -12 -5 -22 -14 -23 -20 -50 -30 -58
-21 -4 3 -15 6 -25 7 -13 1 -17 -3 -13 -14 5 -14 4 -14 -13 -1 -14 11 -17 11
-11 1 6 -10 4 -12 -11 -7 -12 4 -28 -1 -42 -13 -12 -11 -31 -18 -42 -16 -11 2
-17 0 -14 -6 4 -5 1 -9 -5 -9 -6 0 -8 -5 -4 -11 4 -7 1 -10 -7 -7 -8 3 -13 11
-11 17 1 7 -2 10 -8 6 -7 -4 -7 -12 0 -26 7 -11 7 -19 1 -19 -5 0 -11 6 -14
13 -3 9 -8 9 -18 -2 -9 -8 -9 -11 -2 -7 8 4 11 2 8 -6 -3 -8 -15 -15 -28 -15
-15 -2 -18 0 -9 6 11 7 10 10 -3 14 -11 5 -14 3 -9 -5 5 -8 2 -9 -9 -5 -9 3
-19 1 -23 -5 -4 -6 -3 -8 3 -5 12 8 36 -17 26 -26 -3 -4 -13 -1 -21 6 -13 10
-15 9 -9 -5 4 -13 2 -15 -10 -11 -11 4 -14 2 -9 -5 12 -20 -2 -14 -24 11 l-21
22 10 -28 11 -28 -44 4 c-40 3 -44 1 -40 -16 2 -11 0 -16 -4 -13 -7 7 -8 11
-11 37 -1 8 -6 8 -16 -1 -9 -7 -18 -10 -22 -6 -3 3 -1 6 5 6 13 0 17 29 5 31
-5 0 -16 2 -26 4 -9 2 -15 -1 -12 -6 4 -5 -1 -6 -9 -3 -9 3 -13 10 -10 15 3 5
1 9 -5 9 -6 0 -8 8 -4 18 5 14 3 14 -11 -3 -10 -11 -15 -15 -12 -9 3 6 -16 26
-41 44 -26 19 -43 28 -39 22 4 -7 3 -12 -3 -12 -5 0 -13 5 -17 11 -3 6 -15 9
-25 6 -16 -4 -17 -2 -8 14 5 11 6 19 2 18 -21 -4 -33 2 -27 13 5 7 3 8 -6 3
-10 -6 -9 -11 5 -22 11 -7 14 -13 8 -13 -7 0 -15 5 -18 10 -4 6 -11 8 -16 5
-5 -4 -12 1 -15 9 -3 9 -10 16 -16 16 -5 0 -6 -6 -2 -12 4 -7 -4 -3 -17 9 -13
12 -28 22 -32 22 -5 -1 -12 3 -15 7 -4 4 -1 4 7 -1 10 -6 12 -4 7 4 -6 9 -13
8 -29 -6 -11 -10 -17 -13 -14 -6 4 6 -2 18 -13 26 -11 7 -18 16 -15 19 8 8
-29 3 -44 -7 -11 -6 -13 -4 -8 8 5 13 -1 12 -31 -5 l-37 -21 30 27 30 26 -29
-14 c-16 -8 -37 -13 -47 -11 -11 2 -17 0 -14 -6 4 -5 11 -7 16 -4 5 4 9 -1 9
-10 0 -13 -4 -14 -20 -5 -17 9 -20 8 -20 -9 0 -11 -4 -23 -10 -26 -5 -3 -7 0
-4 8 3 8 -2 14 -11 14 -8 0 -15 -5 -14 -11 3 -24 -2 -37 -11 -31 -5 3 -7 0 -4
-8 3 -8 -2 -20 -10 -27 -9 -7 -13 -17 -9 -24 3 -6 2 -7 -2 -3 -12 10 -16 39
-5 32 5 -3 12 0 16 6 4 8 3 9 -4 5 -7 -4 -12 -2 -12 5 0 26 -12 -2 -16 -36 -2
-24 1 -33 8 -29 7 4 8 2 4 -5 -6 -9 -11 -9 -21 -1 -9 7 -16 6 -24 -4 -9 -11
-9 -16 0 -22 8 -5 9 -3 4 6 -6 9 -4 11 4 6 9 -6 8 -13 -5 -27 -12 -14 -13 -19
-4 -19 7 0 11 -3 7 -6 -3 -3 -11 -3 -17 1 -8 5 -8 11 1 23 12 16 11 16 -5 1
-9 -9 -18 -25 -19 -37 -1 -16 -4 -18 -14 -10 -8 6 -16 8 -20 4 -3 -3 -2 -6 4
-6 6 0 14 -7 17 -16 5 -13 3 -14 -6 -6 -9 7 -17 6 -25 -3 -10 -11 -10 -15 0
-18 7 -3 5 -6 -5 -6 -12 -1 -15 -6 -11 -18 6 -16 5 -17 -12 -3 -19 15 -19 14
-1 -15 10 -16 13 -25 6 -18 -7 6 -19 9 -26 6 -10 -4 -12 0 -8 13 4 11 3 16 -1
11 -5 -4 -10 -22 -11 -40 -2 -47 -3 -49 -15 -41 -8 5 -8 9 1 14 9 5 9 9 1 14
-6 4 -12 1 -12 -6 -1 -7 -2 -17 -4 -23 -1 -5 -3 -16 -3 -23 -2 -16 -25 -11
-34 8 -5 12 -7 12 -7 -2 -1 -9 7 -22 17 -28 14 -8 13 -9 -9 -6 -17 3 -26 -1
-26 -9 0 -7 7 -11 16 -8 13 4 13 2 -1 -10 -10 -8 -14 -18 -10 -23 4 -4 -1 -2
-10 5 -15 11 -19 11 -24 -3 -3 -9 -9 -14 -13 -12 -4 3 -8 -5 -8 -17 -2 -20 -1
-20 8 -4 6 9 14 17 20 17 5 0 -1 -12 -15 -27 -14 -15 -23 -30 -20 -35 3 -5 2
-7 -3 -6 -17 5 -54 -24 -49 -38 5 -12 2 -12 -17 -3 -22 12 -22 12 -3 -10 15
-17 16 -20 4 -16 -9 4 -19 1 -24 -6 -4 -7 -3 -10 3 -6 5 3 10 0 10 -8 0 -10
-5 -11 -19 -4 -12 6 -18 6 -18 -1 0 -5 5 -10 10 -10 6 0 10 -5 10 -11 0 -5 -4
-7 -10 -4 -5 3 -10 1 -10 -5 0 -6 -5 -8 -12 -4 -10 6 -10 4 0 -8 11 -14 10
-18 -10 -28 -21 -10 -21 -10 -5 3 15 13 15 15 2 20 -8 4 -14 1 -12 -6 1 -7 -3
-11 -9 -10 -7 1 -10 -6 -7 -17 3 -11 10 -17 16 -13 6 3 7 1 3 -5 -4 -7 -16
-12 -27 -12 -10 0 -19 -5 -19 -11 0 -5 4 -8 9 -4 6 3 9 -3 8 -14 -1 -15 -5
-17 -18 -10 -18 9 -21 -4 -7 -26 4 -6 3 -17 -2 -25 -5 -9 -5 -19 2 -27 8 -10
7 -12 -5 -8 -8 4 -18 1 -22 -5 -3 -6 -3 -10 2 -9 20 3 29 -2 29 -20 0 -11 -3
-18 -6 -16 -3 2 -6 -5 -6 -15 0 -14 3 -16 13 -8 10 8 12 7 7 -6 -4 -10 -1 -16
9 -16 14 0 31 -34 28 -54 -1 -5 6 -3 15 5 16 13 16 12 6 -7 -9 -16 -8 -21 3
-21 8 0 11 5 8 10 -3 6 -1 7 5 3 8 -4 8 -15 2 -31 -7 -19 -6 -23 5 -18 8 3 13
9 10 13 -3 5 0 12 6 16 8 4 9 3 5 -4 -4 -7 -2 -12 5 -12 10 0 10 -3 1 -12 -7
-7 -12 -17 -12 -23 0 -5 5 -3 10 5 9 13 10 13 10 0 0 -13 1 -13 10 0 8 13 10
12 10 -2 0 -10 -5 -18 -10 -18 -6 0 -6 -6 2 -13 7 -8 20 -12 30 -9 12 3 18 -1
18 -13 0 -14 3 -15 14 -6 11 9 16 9 22 0 4 -8 3 -9 -4 -5 -8 5 -11 0 -9 -15 4
-23 48 -44 63 -30 4 3 4 1 0 -6 -4 -7 2 -18 13 -25 16 -10 18 -15 8 -27 -10
-12 -9 -14 7 -8 14 5 17 3 13 -8 -4 -8 -2 -17 4 -20 5 -4 6 -11 3 -17 -4 -6 3
-5 16 2 18 10 21 9 18 -1 -2 -7 3 -22 11 -32 9 -10 24 -28 34 -39 22 -27 22
-35 0 -17 -15 13 -15 12 -3 -11 12 -23 12 -24 -4 -11 -14 12 -16 12 -10 -3 3
-9 2 -16 -4 -16 -11 0 -10 -25 1 -36 4 -4 7 -12 7 -18 0 -6 -5 -4 -10 4 -8 13
-11 13 -22 1 -10 -10 -10 -12 0 -7 8 5 12 0 12 -13 0 -12 -6 -21 -12 -21 -9 0
-8 -4 2 -10 13 -9 13 -10 0 -11 -8 -1 -18 -1 -22 0 -9 1 -4 -20 11 -47 11 -21
11 -23 -6 -20 -10 2 -17 10 -15 17 1 7 -2 10 -8 6 -8 -5 -8 -11 0 -20 8 -10 7
-15 -2 -19 -7 -3 -2 -3 12 1 22 5 23 4 11 -10 -7 -9 -18 -14 -24 -10 -6 3 -7
1 -3 -6 4 -6 12 -8 18 -5 7 4 8 2 4 -5 -4 -6 -2 -20 6 -29 12 -15 11 -16 -4
-4 -11 9 -18 10 -23 2 -3 -5 -1 -10 4 -10 6 0 11 -5 11 -11 0 -5 -4 -7 -10 -4
-5 3 -10 1 -10 -4 0 -6 4 -11 8 -11 5 0 9 -13 9 -30 0 -16 -4 -30 -9 -30 -5 0
-6 6 -2 13 4 6 3 9 -1 4 -5 -4 -9 -16 -10 -26 -1 -13 3 -17 14 -13 13 4 14 3
5 -9 -6 -8 -12 -32 -13 -53 -1 -22 -4 -43 -7 -48 -3 -4 3 -8 12 -8 17 0 11
-14 -7 -16 -20 -3 -21 -5 -10 -17 6 -8 9 -23 7 -34 -3 -11 1 -32 8 -45 14 -27
4 -47 -39 -78 -18 -14 -19 -14 -7 2 9 11 10 18 2 23 -6 4 -9 1 -8 -7 2 -7 -3
-12 -10 -10 -10 2 -10 -2 -3 -16 7 -14 6 -19 -4 -19 -8 0 -12 3 -10 7 2 4 -2
7 -10 7 -8 0 -17 -7 -19 -14 -4 -9 -1 -11 7 -7 8 5 8 2 -2 -9 -15 -19 -35 -12
-27 9 8 22 -2 17 -15 -7 -6 -12 -7 -19 -2 -16 5 3 9 -4 9 -15 0 -19 -1 -19
-18 2 l-18 22 0 -21 c0 -13 -4 -19 -10 -16 -6 4 -8 10 -6 14 3 4 -1 8 -9 8 -8
0 -14 -3 -13 -6 2 -18 -4 -22 -16 -12 -10 8 -16 9 -21 1 -4 -6 -1 -9 6 -8 7 2
15 -5 17 -14 2 -13 -1 -16 -12 -12 -9 4 -16 1 -16 -6 0 -7 -7 -10 -16 -6 -15
6 -15 4 -3 -11 12 -15 12 -16 -3 -10 -10 3 -20 2 -23 -3 -4 -6 -1 -10 6 -10 7
0 9 -3 6 -6 -4 -4 -14 -1 -24 7 -15 12 -16 12 -11 -3 4 -9 0 -23 -10 -31 -17
-15 -21 -17 -43 -17 -5 0 -7 -5 -3 -12 4 -7 3 -8 -4 -4 -6 4 -8 14 -5 24 3 9
-4 5 -16 -11 -13 -15 -27 -24 -33 -21 -7 4 -8 2 -4 -4 5 -9 13 -9 29 -1 22 12
22 12 2 -8 -12 -12 -23 -16 -26 -10 -10 15 -31 -3 -25 -20 5 -11 2 -13 -10 -9
-12 5 -15 2 -12 -12 3 -11 0 -19 -7 -19 -8 0 -11 7 -8 16 4 11 1 9 -10 -4 -13
-17 -13 -21 2 -32 14 -11 13 -12 -7 -8 -12 2 -28 7 -35 11 -6 4 0 -5 16 -21
15 -15 25 -31 22 -34 -4 -3 -9 0 -13 6 -5 8 -13 7 -27 -4 -20 -15 -20 -15 0
-11 14 2 20 -3 20 -17 1 -11 7 -19 14 -17 7 1 10 -2 7 -7 -4 -5 -3 -11 1 -14
5 -2 2 -2 -4 -1 -7 2 -13 -1 -13 -6 0 -6 4 -10 10 -10 5 0 6 -7 3 -17 -5 -12
-3 -14 7 -8 10 6 11 4 4 -6 -15 -25 -14 -47 3 -53 12 -5 13 -4 5 7 -9 10 -8
14 3 14 8 0 12 -4 9 -8 -2 -4 2 -14 11 -22 13 -13 13 -16 0 -21 -13 -5 -13 -9
-3 -25 7 -11 16 -17 22 -14 5 4 6 1 0 -8 -14 -23 -13 -39 3 -39 13 0 14 2 2
18 -13 15 -12 16 3 3 10 -7 16 -17 13 -21 -7 -11 5 -41 14 -35 4 2 8 -3 8 -11
0 -9 -6 -13 -16 -9 -13 4 -12 2 1 -9 10 -7 18 -25 18 -40 0 -14 5 -26 11 -26
5 0 8 4 5 8 -3 5 1 9 9 9 7 0 12 -8 10 -18 -2 -10 0 -21 5 -24 5 -3 6 -13 3
-22 -5 -12 -3 -14 7 -8 9 5 11 4 6 -3 -4 -7 -15 -12 -24 -12 -14 0 -15 -2 -2
-9 8 -6 19 -7 25 -3 5 3 4 -1 -3 -10 -10 -13 -10 -18 -1 -24 8 -5 9 -3 4 6 -6
9 -4 11 5 5 10 -6 9 -11 -6 -23 -12 -9 -13 -13 -4 -10 8 3 21 0 28 -8 9 -10 8
-15 -6 -24 -16 -10 -16 -10 2 -8 14 2 21 -5 27 -25 5 -19 4 -25 -4 -20 -7 3
-9 3 -5 -2 4 -4 2 -15 -5 -24 -10 -14 -10 -14 5 -3 12 10 18 10 23 1 4 -6 1
-16 -6 -21 -10 -7 -8 -8 7 -4 14 4 21 2 21 -8 0 -9 -3 -13 -7 -11 -4 2 -7 -2
-7 -10 0 -8 4 -12 9 -9 13 8 10 -10 -4 -25 -11 -11 -10 -12 1 -6 11 6 13 4 7
-10 -7 -18 -6 -18 12 -2 19 17 19 17 15 -10 -4 -22 -2 -25 6 -13 7 9 11 10 11
3 0 -6 -4 -15 -10 -18 -6 -4 -5 -16 5 -34 8 -16 11 -32 7 -37 -4 -5 0 -3 8 3
10 7 22 7 35 2 20 -9 20 -9 0 -6 -11 2 -26 -2 -33 -9 -10 -11 -7 -13 18 -10
l31 4 -23 -26 c-13 -14 -18 -23 -13 -19 16 9 36 -7 38 -30 0 -11 7 -20 14 -20
10 0 10 4 1 14 -6 7 -8 16 -4 20 3 3 6 1 6 -6 0 -7 5 -9 12 -5 6 4 8 3 4 -4
-3 -6 -2 -13 3 -17 6 -3 8 -12 4 -20 -5 -15 10 -19 49 -16 9 1 21 -10 27 -26
8 -19 10 -21 7 -6 -3 16 2 24 16 29 11 3 22 3 25 0 4 -3 -1 -6 -10 -6 -10 0
-17 -8 -16 -17 0 -11 3 -13 6 -5 2 6 12 12 21 12 15 0 15 -2 2 -11 -12 -8 -12
-10 -1 -7 8 2 15 12 17 22 3 21 14 35 14 17 0 -7 5 -9 12 -5 7 4 8 3 4 -5 -4
-6 -12 -9 -17 -6 -5 3 -6 -1 -3 -9 3 -9 10 -16 16 -16 5 0 6 5 3 10 -3 6 3 10
14 10 12 0 21 5 21 11 0 5 -4 8 -8 5 -5 -3 -9 2 -9 11 0 13 4 12 18 -5 17 -22
36 -31 24 -12 -3 6 3 10 15 10 14 0 19 4 14 13 -4 6 3 3 16 -8 l23 -20 -7 25
c-3 14 -3 19 0 12 3 -6 11 -9 17 -5 7 4 8 0 4 -13 -7 -18 -6 -18 7 -1 14 18
32 24 21 8 -3 -5 0 -13 7 -17 7 -4 10 -4 6 1 -4 4 -2 15 5 23 8 11 8 14 0 9
-6 -4 -14 -3 -17 1 -3 5 5 8 17 7 31 -3 31 -3 16 -22 -13 -16 -12 -17 4 -4 10
8 16 20 13 27 -3 7 -1 16 5 19 5 4 9 3 8 -2 -4 -21 2 -25 14 -8 11 14 16 15
22 5 6 -9 4 -11 -5 -5 -8 5 -11 4 -6 -3 9 -15 36 -3 37 17 0 11 3 8 10 -7 7
-19 29 -23 29 -6 0 3 -6 2 -12 -2 -8 -5 -8 -1 2 12 22 29 24 30 17 12 -3 -9 1
-22 11 -30 9 -7 13 -8 9 -1 -10 15 3 45 17 40 6 -3 20 3 30 12 11 9 16 10 12
4 -4 -7 -3 -13 3 -13 5 0 11 5 13 12 3 7 7 5 11 -6 4 -9 3 -15 -2 -11 -5 3
-13 0 -17 -7 -4 -7 -3 -10 1 -5 5 4 17 -1 28 -10 14 -13 18 -14 12 -3 -20 33
-6 65 18 41 14 -14 30 -15 22 -1 -4 6 1 7 11 3 15 -5 15 -7 0 -15 -9 -5 -14
-14 -10 -19 4 -6 13 -4 24 6 18 16 18 16 13 -4 -3 -13 -1 -21 6 -21 7 0 9 -5
5 -12 -5 -8 -2 -9 10 -5 11 5 15 3 10 -5 -5 -8 -2 -9 11 -4 16 6 16 4 4 -10
-12 -15 -11 -16 11 -9 21 7 23 6 13 -7 -14 -16 -8 -28 14 -28 8 0 11 5 7 12
-5 7 -3 8 5 4 9 -6 8 -13 -6 -29 -16 -19 -16 -20 -1 -8 15 11 19 11 24 -3 3
-9 10 -16 16 -16 5 0 6 4 3 10 -3 6 1 7 10 3 9 -3 13 -9 8 -12 -4 -3 -9 -12
-11 -20 -3 -12 -1 -12 13 -1 14 11 16 11 13 0 -2 -8 3 -15 10 -16 25 -3 27 -4
15 -12 -9 -5 -6 -12 10 -21 20 -13 21 -13 9 2 -12 14 -11 16 6 14 10 0 19 -8
18 -17 -1 -8 5 -14 12 -13 6 2 12 -6 12 -17 0 -12 7 -20 18 -20 14 0 15 2 2
10 -13 8 -12 10 3 10 9 0 17 -7 17 -16 0 -8 5 -12 10 -9 6 3 10 2 10 -4 0 -5
-6 -11 -12 -14 -7 -2 -5 -3 4 -2 9 2 19 -2 22 -9 3 -7 5 -7 5 2 1 6 6 12 12
12 5 0 7 -5 3 -12 -5 -8 -2 -9 10 -5 14 6 15 4 5 -14 -8 -15 -8 -19 0 -15 6 4
11 3 11 -2 0 -6 8 -13 17 -16 15 -6 15 -5 -1 13 -11 13 -14 21 -6 26 6 4 9 1
8 -7 -2 -7 5 -12 14 -12 10 1 16 -2 13 -6 -3 -5 0 -19 5 -32 10 -21 10 -21 6
-1 -2 12 2 24 9 27 9 3 12 -2 10 -15 -4 -18 11 -25 39 -20 5 1 4 -5 -4 -13 -7
-10 -8 -16 -2 -16 6 0 14 5 17 10 5 8 11 8 20 0 10 -8 14 -8 17 2 3 8 7 6 11
-6 4 -9 3 -15 -2 -12 -5 3 -12 -1 -15 -10 -3 -8 -2 -12 4 -9 5 3 18 1 27 -4
10 -6 12 -11 6 -11 -8 0 -13 -13 -13 -31 0 -17 4 -28 10 -24 6 3 7 -1 4 -10
-5 -13 -9 -13 -23 -3 -14 11 -14 11 -4 -3 7 -9 14 -28 15 -43 1 -14 6 -26 11
-26 5 0 1 -7 -7 -16 -20 -19 -21 -31 -2 -15 11 9 16 9 22 0 4 -7 3 -9 -3 -6
-6 4 -14 0 -17 -9 -4 -10 -2 -13 7 -8 9 5 9 4 0 -7 -7 -7 -13 -17 -13 -22 0
-4 6 -5 13 -1 7 5 6 0 -3 -11 -9 -11 -10 -16 -2 -11 8 5 12 0 12 -13 0 -12 -5
-21 -11 -21 -5 0 -7 5 -3 12 4 7 3 8 -4 4 -13 -8 -5 -36 10 -36 5 0 6 -6 1
-12 -10 -17 -13 -78 -4 -78 4 0 7 15 6 33 -2 23 2 34 12 34 9 0 10 -4 3 -11
-14 -14 -13 -29 2 -20 7 5 8 3 2 -7 -15 -24 -13 -38 8 -45 11 -3 17 -8 15 -11
-3 -2 -14 0 -26 6 -15 8 -22 8 -27 -1 -4 -7 -4 -10 1 -6 10 9 47 -31 39 -43
-3 -5 -2 -15 3 -22 11 -18 13 -38 2 -31 -5 3 -9 -2 -9 -11 0 -10 5 -13 13 -9
8 5 8 2 -2 -9 -10 -13 -10 -17 -1 -17 9 0 9 -4 -1 -17 -10 -11 -10 -14 -2 -9
7 4 13 3 13 -3 0 -5 8 -12 18 -14 15 -4 15 -5 1 -6 -26 -2 -30 -27 -6 -29 18
-1 19 1 7 8 -12 8 -10 9 7 7 12 -2 26 -7 30 -12 5 -4 2 -5 -5 -1 -6 4 -12 2
-12 -5 0 -7 8 -9 21 -6 16 4 18 3 8 -9 -6 -7 -16 -11 -22 -7 -6 3 -7 1 -3 -6
6 -9 14 -8 33 4 24 16 24 16 13 -5 -7 -13 -8 -20 -2 -16 6 3 12 3 15 -1 2 -5
2 -2 1 4 -2 7 0 13 4 14 4 0 15 2 25 4 9 2 15 -1 11 -6 -3 -5 -11 -6 -17 -3
-7 4 -8 3 -4 -2 5 -5 12 -9 15 -9 4 0 13 -4 19 -8 9 -6 11 -3 7 7 -8 21 5 20
23 -1 12 -15 14 -15 10 -2 -3 9 1 16 9 16 8 0 14 -7 14 -14 0 -8 5 -11 10 -8
6 4 8 10 6 14 -3 3 4 7 14 7 10 0 16 -6 13 -13 -3 -7 -1 -13 5 -13 5 0 13 7
16 16 4 9 11 12 18 7 7 -4 22 -7 33 -5 l20 2 -20 -9 c-19 -9 -19 -10 3 -10 12
-1 22 -6 22 -12 0 -5 5 -7 12 -3 8 5 9 1 4 -12 -6 -16 -5 -17 6 -6 11 11 10
16 -5 26 -17 13 -17 14 0 20 10 4 14 4 11 0 -4 -3 -1 -13 7 -20 20 -21 27 -17
15 9 -11 21 -11 22 5 2 9 -11 28 -21 43 -21 42 -3 44 -3 36 -16 -5 -7 -3 -8 7
-2 21 13 39 14 39 1 0 -7 5 -5 10 3 9 13 10 13 11 0 1 -8 1 -19 0 -23 -1 -5 3
-5 9 -2 6 4 9 13 6 20 -5 14 18 14 31 0 4 -4 3 -5 -3 -2 -6 3 -11 0 -11 -8 0
-11 4 -12 13 -4 10 8 18 7 30 -6 12 -11 20 -13 27 -6 14 14 30 14 22 1 -3 -5
-1 -10 4 -10 6 0 11 4 11 10 0 5 7 6 17 3 10 -4 14 -2 10 4 -3 5 0 10 8 10 13
0 13 -3 0 -17 -8 -9 -12 -20 -8 -24 4 -4 15 3 25 16 16 20 17 20 11 3 -6 -18
-5 -19 12 -5 10 8 16 10 12 3 -10 -16 12 -22 46 -12 15 4 25 4 23 0 -3 -4 4
-13 16 -20 15 -9 18 -9 13 0 -5 7 -3 10 6 7 8 -3 13 -10 12 -15 -1 -5 5 -10
12 -10 10 0 12 4 5 12 -7 9 -5 16 5 25 13 11 19 10 35 -5 11 -10 20 -15 20
-11 0 3 11 0 23 -9 20 -13 24 -13 24 -1 0 8 -6 12 -14 9 -7 -3 -13 -1 -13 4 0
5 15 9 33 8 17 -1 44 2 60 6 16 5 25 4 22 -2 -4 -5 -1 -9 4 -9 6 0 11 5 11 10
0 6 5 10 11 10 5 0 7 -5 4 -10 -3 -6 -1 -10 4 -10 6 0 11 5 11 11 0 5 4 8 9 5
5 -3 15 2 22 11 8 9 9 14 3 10 -7 -4 -14 0 -17 7 -4 10 0 13 14 11 17 -3 18
-1 10 9 -9 11 -8 14 6 12 12 -1 18 6 18 21 0 12 5 26 9 30 5 4 6 3 2 -4 -3 -6
-1 -15 5 -19 8 -4 9 -3 5 4 -4 7 -1 12 6 12 10 0 10 2 1 8 -16 10 -13 51 4 45
7 -3 10 -10 6 -16 -3 -6 -1 -7 6 -3 6 4 9 12 5 17 -3 5 0 17 8 26 12 15 11 15
-12 3 -24 -13 -25 -12 -7 7 9 11 17 32 17 46 0 15 5 27 11 27 5 0 7 5 4 10 -4
6 -11 7 -17 4 -7 -4 -8 -2 -4 5 4 6 12 9 17 6 5 -4 9 -2 9 4 0 5 -6 12 -12 14
-7 3 -3 6 9 6 12 1 25 5 28 11 3 5 0 7 -8 4 -8 -3 -14 1 -14 10 0 8 3 13 7 11
3 -2 12 5 19 17 7 11 8 17 2 13 -7 -3 -11 2 -11 14 0 12 5 21 11 21 5 0 7 -5
3 -12 -4 -7 -3 -8 5 -4 6 4 9 12 5 17 -3 5 0 16 6 24 7 8 9 15 5 15 -4 0 -14
-8 -21 -17 -12 -16 -12 -16 -7 5 5 22 13 26 43 23 12 -2 12 0 2 7 -16 11 -15
21 1 41 10 12 8 14 -8 8 -19 -7 -19 -6 -1 7 18 15 13 42 -6 30 -7 -4 -8 -2 -4
5 4 6 12 9 17 6 5 -4 9 -1 9 5 0 6 5 8 10 5 6 -3 10 -1 10 5 0 7 7 10 15 6 8
-3 14 0 12 7 -1 7 5 11 13 9 8 -2 12 0 7 4 -11 11 52 37 96 39 21 1 37 -3 37
-9 1 -6 8 1 16 17 17 31 21 33 21 12 0 -8 -4 -15 -9 -15 -4 0 -8 -5 -8 -10 0
-11 40 8 51 24 4 5 14 6 22 3 11 -4 14 -1 10 9 -3 7 0 14 6 14 6 0 11 -4 11
-10 0 -5 5 -10 11 -10 5 0 7 4 4 10 -9 14 19 12 34 -2 11 -11 11 -9 2 10 -14
26 -4 29 16 5 8 -10 11 -12 7 -4 -5 10 -3 13 8 8 12 -4 14 -1 11 14 -4 14 0
19 16 19 14 0 20 -4 15 -12 -4 -7 -3 -8 5 -4 9 6 9 11 0 22 -10 13 -8 13 17 4
27 -9 28 -9 10 5 -23 18 -14 20 17 3 19 -10 21 -9 9 4 -9 11 -10 18 -2 23 6 3
8 11 5 16 -4 5 -4 9 -1 9 3 0 10 -9 16 -20 9 -17 8 -19 -7 -14 -15 5 -15 4 -3
-4 9 -7 19 -7 26 -2 6 6 13 8 16 5 2 -3 5 2 5 10 0 12 -3 12 -15 2 -13 -11
-14 -9 -1 10 13 22 14 22 24 4 8 -16 12 -17 22 -6 8 9 9 16 3 20 -6 3 -10 1
-10 -6 0 -7 -3 -10 -6 -6 -3 3 2 16 11 29 10 13 15 16 12 6 -4 -12 -1 -16 12
-15 13 1 17 6 13 17 -5 13 -4 13 13 0 19 -15 19 -14 1 15 -10 17 -13 24 -5 17
15 -14 43 -17 35 -3 -3 5 0 14 7 20 10 8 14 7 14 -4 0 -8 -5 -11 -10 -8 -6 4
-7 1 -2 -7 6 -10 13 -7 27 11 11 13 18 17 15 9 -4 -12 2 -16 24 -14 17 1 26
-2 23 -8 -3 -5 2 -8 11 -6 10 2 20 -4 22 -12 4 -13 3 -13 -7 0 -9 12 -11 12
-8 1 2 -8 14 -15 27 -16 15 -1 20 3 17 12 -3 8 -1 11 4 8 14 -9 12 -32 -2 -39
-7 -2 -4 -4 7 -3 11 2 26 7 34 11 9 6 12 5 8 0 -3 -6 -2 -16 4 -24 7 -13 9
-13 9 0 1 9 5 6 10 -7 6 -15 15 -21 25 -17 8 3 12 10 9 15 -3 5 3 6 12 2 11
-4 13 -8 6 -11 -17 -5 -15 -29 4 -36 15 -6 15 -4 3 10 -13 16 -12 16 7 6 12
-6 24 -9 26 -6 7 7 29 -22 32 -42 2 -10 9 -20 17 -22 9 -2 10 0 4 5 -13 10
-13 28 -2 40 5 4 7 1 5 -7 -2 -8 3 -15 10 -16 6 -1 15 -3 20 -4 4 -1 10 -2 14
-1 4 0 5 -6 1 -15 -5 -14 -3 -15 15 -5 21 11 26 8 23 -13 -3 -16 20 -35 39
-31 11 2 22 -1 26 -6 3 -6 16 -4 31 6 14 10 22 12 18 6 -4 -8 1 -10 17 -8 13
3 32 1 43 -4 11 -4 14 -8 8 -8 -7 -1 -13 -6 -13 -12 0 -8 5 -8 15 1 11 9 12
16 5 25 -7 8 -5 12 5 12 8 0 15 -7 15 -14 0 -8 5 -11 10 -8 6 4 8 10 5 15 -3
4 2 11 11 14 8 3 13 10 9 15 -3 5 0 13 6 17 7 4 9 3 6 -3 -4 -6 0 -14 9 -17 8
-3 13 -2 9 3 -10 17 7 43 26 38 12 -3 16 0 12 9 -3 8 -10 11 -16 7 -5 -3 -7
-1 -3 5 3 6 19 9 34 7 15 -2 21 -2 15 1 -7 3 -13 13 -13 22 0 15 2 15 10 2 9
-13 10 -13 10 0 0 9 -6 22 -12 30 -7 8 -2 6 11 -5 21 -17 24 -18 18 -3 -3 10
1 24 9 33 9 8 12 15 8 15 -3 0 -1 6 5 13 6 8 7 17 3 21 -4 4 0 6 8 4 8 -2 14
3 13 10 -2 6 2 12 7 12 13 0 13 -13 -1 -27 -7 -7 -6 -12 5 -16 10 -4 13 -1 10
7 -5 14 14 39 43 54 13 8 13 13 3 33 -7 13 -9 21 -5 17 5 -4 15 -2 24 5 14 11
15 10 1 -8 -15 -20 -14 -20 8 -1 23 20 30 32 12 21 -13 -8 -13 -2 2 30 6 14
16 25 21 25 5 0 4 -7 -3 -15 -7 -9 -10 -18 -6 -22 3 -3 6 -1 6 6 0 7 4 10 9 7
5 -3 8 7 7 23 -2 27 0 29 18 19 19 -10 19 -9 8 4 -10 13 -10 18 -1 24 7 4 9 3
6 -2 -3 -6 3 -10 13 -11 11 -1 23 3 26 9 4 7 2 8 -4 4 -7 -4 -21 1 -31 11 -19
18 -19 19 -1 19 10 0 16 -4 14 -8 -9 -14 13 -9 25 6 10 11 8 17 -6 25 -15 10
-14 10 9 7 21 -4 26 -1 21 11 -4 11 -2 14 5 9 7 -4 12 -1 12 9 0 10 5 13 12 9
8 -5 9 -2 5 9 -7 19 9 33 17 15 4 -7 4 -3 2 10 -4 20 -2 21 11 10 15 -12 15
-11 4 10 -6 12 -7 22 -2 22 5 0 11 -5 13 -10 2 -6 9 -1 15 10 11 17 10 19 -5
14 -14 -5 -15 -4 -2 5 8 6 15 16 15 22 0 7 10 14 23 16 16 2 21 -1 16 -9 -4
-6 -3 -8 4 -5 5 4 9 19 7 33 -2 19 1 24 13 19 14 -5 13 -3 -1 13 -16 17 -15
18 13 16 17 -1 27 2 24 7 -3 5 -9 7 -14 4 -5 -3 -12 -1 -15 5 -4 6 -3 10 2 9
20 -3 34 2 28 11 -4 6 -12 8 -18 4 -7 -3 1 6 17 19 17 15 24 27 17 31 -7 5 -7
12 1 26 7 10 15 17 19 14 4 -2 11 1 15 7 4 8 3 9 -4 5 -7 -4 -12 -2 -12 5 0 7
-9 5 -22 -7 -23 -19 -23 -19 -5 2 9 11 14 24 10 27 -12 13 13 7 27 -6 12 -10
12 -9 2 4 -6 9 -9 19 -6 22 4 4 -2 5 -13 3 -11 -3 -26 0 -34 5 -9 5 -10 9 -2
9 7 0 10 9 8 22 -3 12 1 26 8 31 8 6 6 7 -6 3 -13 -4 -17 -1 -15 11 2 9 -4 18
-12 20 -13 4 -13 3 0 -6 8 -6 10 -11 5 -11 -20 0 -46 41 -40 63 5 19 5 20 -5
4 -15 -23 -33 -11 -24 16 6 19 5 20 -9 8 -14 -11 -19 -8 -38 23 -11 20 -25 36
-31 36 -5 0 -6 5 -2 11 4 8 -1 9 -17 5 -20 -6 -21 -5 -6 4 9 6 17 16 17 23 0
8 -3 8 -8 2 -12 -16 -32 -16 -26 0 4 8 11 15 17 15 6 0 7 3 4 6 -4 4 -14 1
-23 -7 -16 -12 -17 -12 -12 7 4 17 1 21 -18 18 -21 -2 -22 0 -13 18 10 18 9
19 -11 8 -14 -7 -20 -8 -16 -2 4 6 -2 15 -11 21 -10 6 -13 11 -7 11 5 0 15 -5
21 -11 7 -7 12 -6 16 4 3 9 -1 14 -11 13 -10 0 -16 5 -14 13 3 12 1 12 -14 0
-10 -8 -15 -9 -11 -2 4 7 -1 14 -13 18 -12 4 -17 11 -13 18 10 16 13 37 5 34
-11 -3 -47 27 -50 42 -2 11 0 12 10 3 11 -8 14 -7 15 8 1 13 -3 17 -15 13 -15
-4 -15 -3 -2 6 8 6 11 11 6 11 -5 0 -4 6 2 13 6 6 12 17 14 22 1 6 9 9 16 9
10 -2 10 1 1 12 -8 10 -8 18 0 27 7 10 7 17 0 24 -8 8 -7 13 2 18 8 6 10 4 4
-6 -5 -8 -4 -11 1 -6 5 5 10 13 10 18 1 5 2 10 4 12 7 9 6 37 -1 37 -6 0 -9
-7 -7 -16 2 -10 -4 -19 -12 -21 -9 -3 -11 -1 -5 4 6 4 11 19 13 33 1 13 8 28
15 32 8 5 8 8 1 8 -7 0 -15 7 -18 16 -6 15 -3 15 21 -1 16 -10 22 -12 16 -4
-19 20 -16 33 5 18 16 -13 16 -12 -1 7 -16 19 -16 22 -2 34 11 9 12 16 5 26
-8 9 -7 15 6 22 11 6 13 11 5 16 -6 4 -11 2 -11 -4 0 -6 -4 -9 -8 -6 -15 9 -6
66 13 82 16 13 17 15 3 10 -10 -3 -20 -1 -23 5 -4 5 -1 8 7 7 8 -2 12 4 10 16
-2 10 2 23 10 27 8 6 9 9 2 9 -7 0 -15 7 -18 16 -3 8 -2 13 3 10 5 -3 12 1 15
10 3 8 2 13 -3 10 -18 -11 -21 27 -4 41 10 8 13 12 7 9 -7 -3 -11 6 -12 24 0
17 4 30 9 30 6 0 7 -6 3 -12 -4 -7 -3 -9 1 -5 12 10 16 39 5 32 -5 -3 -12 0
-16 6 -4 7 -3 9 4 5 6 -3 20 6 33 21 12 16 19 20 16 11 -3 -10 -2 -20 2 -23 5
-2 11 5 14 16 4 15 11 20 21 16 9 -4 16 -2 16 3 0 5 9 12 20 15 11 3 20 11 20
16 0 6 -4 8 -9 4 -5 -3 -13 0 -17 7 -4 7 -4 10 1 6 4 -4 15 -2 23 5 11 8 14 8
9 0 -4 -6 -3 -14 3 -18 5 -3 10 -1 10 5 0 6 5 8 10 5 6 -3 10 4 10 17 0 13 3
18 8 12 7 -12 27 1 29 19 3 18 12 30 10 13 -1 -10 3 -21 10 -23 8 -3 11 3 8
16 -3 15 1 19 15 16 12 -2 17 1 14 10 -4 9 3 12 25 10 17 -1 28 1 25 6 -3 5
-9 7 -14 4 -5 -3 -12 -1 -15 5 -4 6 -3 10 2 9 21 -4 34 2 27 13 -4 7 -3 8 5 4
6 -4 9 -11 6 -16 -3 -4 4 -6 16 -3 16 4 17 8 7 14 -10 7 -8 9 7 10 11 1 24 1
28 0 5 -1 6 3 2 9 -3 5 1 13 9 16 9 3 16 10 16 16 0 5 -5 6 -12 2 -6 -4 -8 -3
-5 4 4 5 18 9 31 8 19 -2 23 1 21 15 -2 11 1 19 6 19 6 0 7 5 3 12 -4 7 -3 8
5 4 6 -4 8 -12 5 -18 -5 -7 -2 -8 5 -3 7 4 11 15 8 25 -3 13 1 16 19 14 13 -1
22 2 18 7 -3 5 -10 6 -16 3 -7 -4 -8 -2 -4 5 4 6 2 19 -5 27 -10 12 -10 15 1
12 19 -4 20 41 1 52 -13 7 -13 9 -2 10 8 0 12 3 8 6 -3 3 -1 18 4 32 9 23 8
24 -8 11 -9 -8 -14 -9 -10 -2 4 7 0 17 -10 23 -13 8 -14 10 -2 7 17 -5 20 26
4 40 -4 5 -5 3 -1 -4 3 -6 2 -14 -4 -18 -6 -3 -10 4 -10 16 0 12 -8 31 -17 41
-16 18 -16 18 3 12 17 -7 17 -6 5 9 -7 9 -16 15 -20 13 -4 -3 -13 -1 -20 3
-10 6 -9 10 4 14 9 4 13 3 10 -3 -3 -6 1 -7 9 -4 9 3 16 11 16 17 0 6 -3 7 -7
4 -3 -4 -13 -1 -21 6 -13 10 -14 9 -7 -2 6 -10 4 -12 -4 -6 -9 5 -10 10 -2 18
14 14 14 27 0 27 -5 0 -7 -6 -3 -12 4 -7 3 -9 -1 -5 -12 10 -16 39 -5 32 5 -3
7 3 5 12 -2 10 -4 22 -4 26 -1 5 -5 5 -11 2 -5 -3 -10 1 -10 10 0 9 -4 14 -9
11 -5 -3 -11 1 -15 9 -3 8 -1 17 4 20 6 4 7 13 1 23 -4 9 -7 24 -6 33 2 9 -3
16 -11 16 -10 0 -11 -4 -3 -13 7 -8 7 -14 -1 -19 -6 -4 -9 -1 -8 7 2 8 -4 12
-14 10 -10 -2 -18 2 -18 8 0 5 5 9 11 8 6 -2 14 3 16 10 3 7 -1 11 -7 10 -7
-2 -14 5 -15 15 -2 9 1 15 6 11 5 -3 6 -10 3 -16 -4 -7 -2 -8 4 -4 13 8 5 36
-10 36 -6 0 -6 6 1 14 9 11 9 16 0 22 -8 5 -9 3 -4 -6 5 -9 4 -11 -4 -6 -7 4
-10 13 -8 19 2 7 -5 18 -17 25 -15 10 -16 12 -3 8 14 -5 16 -2 8 13 -6 10 -7
22 -3 26 4 5 1 5 -6 1 -7 -4 -9 -13 -6 -19 4 -7 3 -8 -2 -4 -14 13 -11 31 6
44 13 11 12 13 -8 19 -12 4 -22 11 -21 18 3 20 -13 46 -28 46 -10 0 -13 6 -9
15 3 8 9 22 12 30 3 8 1 15 -5 15 -6 0 -10 5 -9 11 2 6 -4 14 -12 16 -13 4
-13 3 0 -6 8 -6 11 -11 6 -11 -5 0 -5 -6 0 -13 5 -7 1 -4 -9 6 -13 15 -15 23
-6 34 9 11 9 12 -4 8 -8 -4 -18 -1 -23 6 -4 7 -3 10 3 6 6 -4 16 0 23 8 11 13
10 14 -4 9 -9 -3 -16 -1 -16 6 0 6 -5 8 -12 4 -9 -5 -8 -2 1 9 8 10 11 20 7
24 -3 3 -6 2 -6 -4 0 -6 -7 -14 -16 -17 -14 -5 -15 -4 -4 9 8 10 9 15 1 15 -6
0 -11 5 -11 11 0 5 5 7 12 3 7 -4 8 -3 4 5 -4 6 -11 9 -16 6 -5 -3 -11 -1 -15
5 -3 5 2 10 12 11 11 0 13 3 5 6 -7 3 -19 -1 -28 -7 -12 -11 -13 -10 -8 4 6
16 -2 19 -48 19 -10 0 -15 4 -12 8 3 5 9 7 13 5 4 -3 8 1 8 8 0 7 -6 13 -13
13 -7 0 -12 -3 -10 -6 2 -3 -2 -11 -9 -18 -10 -10 -14 -9 -19 3 -3 8 -1 12 4
9 6 -3 7 1 3 10 -3 9 -9 12 -12 7 -3 -5 -15 -8 -25 -6 -11 1 -25 0 -30 -4 -16
-10 -36 -11 -36 -3 0 4 -7 8 -15 8 -8 0 -12 -4 -9 -9 3 -4 0 -8 -5 -8 -6 0
-11 -5 -11 -11 0 -8 4 -8 13 -1 13 11 41 11 52 0 3 -3 -2 -5 -12 -5 -37 0 -44
-3 -37 -15 4 -7 -1 -6 -12 4 -17 14 -21 14 -32 2 -11 -12 -17 -13 -30 -2 -14
11 -15 10 -9 -7 7 -20 7 -20 -8 -1 -13 17 -17 18 -28 6 -10 -10 -9 -11 1 -5
11 6 12 3 3 -14 -13 -23 -23 -29 -15 -8 3 8 -6 18 -20 25 -21 9 -24 9 -19 -3
3 -8 10 -12 17 -8 7 3 6 1 -1 -7 -11 -12 -15 -11 -27 6 -10 13 -14 14 -13 4 2
-8 6 -20 9 -26 4 -6 1 -11 -7 -11 -8 0 -12 4 -9 9 3 4 0 8 -6 8 -6 0 -9 4 -6
8 3 5 -1 9 -9 9 -8 0 -11 -5 -7 -11 10 -17 11 -37 1 -30 -5 3 -7 10 -4 15 4 5
1 9 -4 9 -6 0 -11 -6 -11 -12 0 -9 -3 -8 -10 2 -8 13 -11 13 -22 1 -11 -11
-11 -13 1 -6 10 5 12 4 7 -4 -4 -6 -13 -8 -19 -4 -7 4 -24 6 -39 4 -18 -1 -28
2 -28 10 0 7 -6 4 -14 -6 -8 -11 -12 -24 -9 -29 4 -5 1 -6 -6 -2 -6 4 -9 11
-6 16 3 5 0 12 -6 16 -8 5 -9 3 -4 -6 6 -9 2 -10 -16 -5 l-24 8 24 -20 23 -19
-25 0 c-14 0 -23 4 -21 8 3 4 -2 8 -11 8 -9 0 -14 -4 -10 -9 6 -11 -34 -6 -44
5 -3 4 2 4 12 1 21 -8 23 9 1 17 -10 4 -14 12 -10 23 4 10 4 15 1 11 -3 -3
-17 5 -30 18 -13 13 -30 24 -37 24 -7 0 -4 -6 7 -12 35 -19 58 -58 35 -58 -6
0 -9 3 -9 8 4 21 -4 31 -31 42 -16 7 -30 17 -30 22 0 5 5 6 10 3 6 -3 10 -1
10 4 0 10 -15 15 -23 9 -2 -2 -11 3 -21 11 -12 11 -14 17 -5 28 10 11 8 12 -5
7 -11 -4 -16 -2 -14 7 2 9 -6 13 -24 13 -15 -1 -25 3 -22 7 3 5 -2 12 -10 15
-9 3 -16 11 -16 17 0 6 11 0 24 -12 18 -17 26 -19 31 -10 5 8 4 10 -3 5 -7 -4
-12 -1 -12 9 0 9 -4 14 -9 11 -5 -3 -14 1 -21 9 -7 8 -21 15 -31 15 -11 0 -19
5 -19 11 0 6 -7 9 -15 6 -8 -4 -17 -2 -20 4 -4 5 -10 7 -14 5 -12 -8 -10 27 3
44 9 12 8 13 -4 4 -21 -15 -50 -25 -49 -16 3 20 -3 31 -21 37 -12 4 -17 11
-13 18 4 7 -2 5 -12 -3 -11 -9 -16 -10 -11 -2 5 8 0 12 -16 12 -18 0 -20 2 -8
10 12 8 12 10 -5 10 -11 0 -31 9 -45 20 -19 14 -28 16 -39 7 -11 -10 -13 -8
-7 11 6 17 3 22 -9 22 -9 0 -13 -4 -10 -10 3 -6 -1 -7 -10 -4 -14 6 -13 8 5
21 l20 14 -22 32 c-18 24 -19 29 -5 24 9 -3 19 -1 23 5 5 7 2 8 -6 3 -10 -6
-12 -4 -7 8 3 9 2 19 -4 22 -5 4 -8 1 -7 -6 2 -6 -4 -14 -12 -16 -12 -4 -12
-3 -2 5 8 5 13 12 13 16 -3 24 0 27 17 15 15 -13 16 -12 3 4 -11 14 -11 20 0
34 8 9 9 14 4 11 -6 -4 -22 3 -35 13 -21 17 -21 19 -4 10 17 -8 25 -7 34 4 9
11 9 15 1 15 -6 0 -11 -5 -11 -11 0 -5 -5 -7 -11 -4 -7 5 -2 16 12 31 12 13
17 24 11 24 -7 0 -12 -5 -12 -11 0 -5 -5 -7 -12 -3 -7 4 -8 3 -4 -4 5 -8 2
-10 -8 -6 -13 5 -12 9 7 26 l22 19 -25 -5 c-14 -3 -19 -3 -12 0 10 5 10 9 0
22 -10 12 -10 14 0 8 6 -4 12 -2 12 3 0 6 -4 11 -10 11 -5 0 -10 5 -10 11 0 8
5 7 15 -1 27 -23 26 -4 -1 23 l-27 27 32 -11 c17 -6 28 -16 24 -22 -3 -6 -1
-7 5 -3 17 10 15 14 -19 31 -17 9 -28 19 -25 22 3 4 0 13 -7 21 -9 13 -9 14 1
8 13 -8 13 19 -1 42 -5 7 -3 14 6 18 7 2 14 11 14 19 0 18 -14 20 -19 3 -3 -7
-5 2 -5 20 0 17 4 32 9 32 5 0 6 -4 3 -10 -3 -5 -1 -10 4 -10 6 0 11 4 11 9 0
11 -25 32 -31 26 -4 -3 -9 22 -12 61 0 7 -10 11 -23 9 -15 -1 -21 2 -17 11 3
8 9 12 13 9 5 -3 12 -1 15 5 4 6 1 9 -7 8 -7 -2 -12 3 -10 11 3 12 1 12 -14 0
-13 -11 -18 -11 -21 -1 -3 6 -9 12 -14 12 -6 0 -7 -4 -4 -10 3 -5 1 -10 -4
-10 -6 0 -11 5 -11 10 0 6 -9 10 -19 10 -11 0 -21 3 -24 8 -2 4 -2 1 -1 -5 4
-15 -8 -17 -22 -3 -6 6 -19 5 -37 -5 -25 -13 -31 -11 -28 8 0 4 -6 8 -14 8
-32 3 -36 4 -44 18 -6 10 -11 6 -19 -15 -7 -20 -11 -23 -11 -10 -1 16 -3 16
-17 6 -12 -11 -15 -11 -12 1 2 8 -3 13 -9 11 -7 -1 -13 3 -13 9 0 5 -4 8 -9 4
-5 -3 -12 -1 -16 5 -4 6 -11 8 -16 4 -5 -3 -17 0 -26 8 -9 7 -14 8 -10 2 4 -7
-2 -14 -13 -17 -11 -3 -23 0 -27 5 -4 7 -1 8 7 3 8 -5 11 -4 7 3 -4 5 -15 9
-25 7 -9 -2 -23 -4 -30 -4 -7 -1 -10 -6 -6 -13 4 -7 3 -8 -4 -4 -16 9 -15 23
1 29 6 2 5 3 -4 2 -9 -1 -24 2 -34 8 -10 5 -15 5 -12 0 3 -5 -3 -14 -14 -21
-16 -10 -20 -10 -25 1 -3 8 -16 13 -30 11 -18 -2 -24 2 -20 11 3 8 0 17 -6 21
-7 4 -8 3 -4 -4 4 -7 1 -12 -9 -12 -10 0 -13 -5 -9 -12 5 -9 2 -9 -9 1 -9 7
-17 10 -17 5 0 -5 -7 0 -15 10 -8 11 -15 16 -15 10 0 -5 -5 -2 -10 6 -8 13
-10 13 -10 -2 0 -9 6 -19 13 -21 9 -4 9 -6 -1 -6 -7 -1 -15 6 -18 14 -6 14 -8
13 -20 -2 -11 -15 -13 -15 -8 -2 3 10 -1 19 -10 22 -11 4 -16 1 -17 -11 0 -10
-3 -12 -6 -4 -2 7 -14 17 -25 23 -11 6 -18 7 -15 2 3 -5 2 -15 -4 -23 -7 -12
-9 -11 -10 5 -1 11 -1 24 0 28 1 4 -8 3 -19 -3 -11 -6 -18 -15 -15 -20 3 -5 1
-12 -5 -15 -6 -4 -9 -1 -8 7 2 7 -3 12 -10 10 -8 -1 -11 2 -7 8 3 6 10 8 14 6
4 -3 8 1 8 9 0 11 -4 12 -14 4 -9 -9 -17 -8 -27 0 -10 8 -16 9 -21 1 -3 -5
-13 -10 -21 -10 -10 0 -12 5 -8 13 5 8 2 8 -9 -2 -19 -15 -23 -26 -5 -15 7 4
8 3 4 -5 -8 -12 -19 -8 -47 16 -13 11 -18 10 -34 -7z m29 -6 c3 -8 2 -13 -3
-9 -5 3 -17 -2 -25 -11 -21 -21 -21 -6 1 18 20 22 19 22 27 2z m110 1 c3 -8 1
-15 -4 -15 -6 0 -10 7 -10 15 0 8 2 15 4 15 2 0 6 -7 10 -15z m120 -31 c3 -8
2 -12 -4 -9 -6 3 -10 10 -10 16 0 14 7 11 14 -7z m306 -32 c0 -5 -7 -9 -15 -9
-8 0 -12 4 -9 9 3 4 9 8 15 8 5 0 9 -4 9 -8z m60 -12 c0 -5 -5 -10 -11 -10 -5
0 -7 5 -4 10 3 6 8 10 11 10 2 0 4 -4 4 -10z m124 -28 c3 -5 -1 -9 -9 -9 -8 0
-12 4 -9 9 3 4 7 8 9 8 2 0 6 -4 9 -8z m96 -13 c0 -5 -4 -9 -8 -9 -5 0 -9 7
-9 15 0 8 4 12 9 9 4 -3 8 -9 8 -15z m-1008 -176 c-6 -2 -9 -10 -6 -15 4 -7 2
-8 -5 -4 -13 9 -5 26 12 25 9 0 8 -2 -1 -6z m-1322 -373 c6 -11 8 -20 6 -20
-3 0 -10 9 -16 20 -6 11 -8 20 -6 20 3 0 10 -9 16 -20z m2660 0 c-6 -11 -16
-20 -23 -20 -7 0 -6 4 3 10 8 5 11 10 5 10 -5 0 -3 5 5 10 21 14 22 13 10 -10z
m-1570 -10 c0 -5 -5 -10 -11 -10 -5 0 -7 5 -4 10 3 6 8 10 11 10 2 0 4 -4 4
-10z m-255 -70 c-3 -5 -18 -18 -34 -29 -21 -15 -28 -17 -28 -6 0 8 4 12 8 10
4 -3 18 4 30 15 27 22 33 24 24 10z m1815 -20 c0 -5 -5 -10 -11 -10 -5 0 -7 5
-4 10 3 6 8 10 11 10 2 0 4 -4 4 -10z m-2319 -47 c12 -16 12 -17 -2 -6 -9 7
-20 9 -24 5 -5 -4 -4 -1 0 7 6 11 4 13 -8 8 -17 -6 -31 5 -20 16 8 8 36 -8 54
-30z m2344 27 c3 -5 -1 -10 -10 -10 -9 0 -13 5 -10 10 3 6 8 10 10 10 2 0 7
-4 10 -10z m50 -69 c3 -5 2 -12 -3 -15 -5 -3 -9 1 -9 9 0 17 3 19 12 6z m1095
-301 c8 -5 11 -10 5 -10 -5 0 -17 5 -25 10 -8 5 -10 10 -5 10 6 0 17 -5 25
-10z m-442 -105 c-3 -3 -9 2 -12 12 -6 14 -5 15 5 6 7 -7 10 -15 7 -18z
m-3968 -1 c0 -8 -19 -13 -24 -6 -3 5 1 9 9 9 8 0 15 -2 15 -3z m4677 -190 c-3
-3 -12 -4 -19 -1 -8 3 -5 6 6 6 11 1 17 -2 13 -5z m30 -40 c-3 -3 -12 -4 -19
-1 -8 3 -5 6 6 6 11 1 17 -2 13 -5z m-4727 -314 c0 -5 -5 -10 -11 -10 -5 0 -7
5 -4 10 3 6 8 10 11 10 2 0 4 -4 4 -10z m171 -177 c-12 -20 -14 -14 -5 12 4 9
9 14 11 11 3 -2 0 -13 -6 -23z m66 -70 c0 -9 -4 -10 -14 -2 -7 6 -13 12 -13
14 0 1 6 2 13 2 8 0 14 -6 14 -14z m3 -92 c0 -5 -7 -11 -14 -14 -10 -4 -13 -1
-9 9 6 15 23 19 23 5z m-40 -121 c0 -5 -7 -10 -16 -10 -8 0 -12 5 -9 10 3 6
10 10 16 10 5 0 9 -4 9 -10z m4640 -79 c0 -6 -4 -12 -8 -15 -5 -3 -9 1 -9 9 0
8 4 15 9 15 4 0 8 -4 8 -9z m-4683 -352 c-2 -10 -6 -21 -10 -25 -3 -4 -4 4 -2
16 3 13 -1 31 -8 39 -11 14 -10 14 5 2 10 -7 16 -21 15 -32z m-214 -224 c-3
-9 -8 -14 -10 -11 -3 3 -2 9 2 15 9 16 15 13 8 -4z m4477 -26 c0 -5 -4 -9 -8
-9 -5 0 -9 7 -9 15 0 8 4 12 9 9 4 -3 8 -9 8 -15z m7 -37 c-10 -10 -14 -22
-10 -25 3 -4 1 -7 -5 -7 -7 0 -12 2 -12 5 0 11 25 45 34 45 5 0 2 -8 -7 -18z
m-51 -384 c10 -13 12 -18 5 -11 -7 6 -19 10 -25 9 -6 -2 -8 -1 -3 1 4 3 5 9 1
14 -10 17 3 9 22 -13z m-4676 -54 c0 -8 -19 -13 -24 -6 -3 5 1 9 9 9 8 0 15
-2 15 -3z m127 -336 c-3 -8 -6 -5 -6 6 -1 11 2 17 5 13 3 -3 4 -12 1 -19z m46
-93 c-3 -9 -8 -14 -10 -11 -3 3 -2 9 2 15 9 16 15 13 8 -4z m4862 -83 c-3 -3
-11 0 -18 7 -9 10 -8 11 6 5 10 -3 15 -9 12 -12z m-4844 -25 c-10 -9 -11 -8
-5 6 3 10 9 15 12 12 3 -3 0 -11 -7 -18z m179 -263 c0 -8 -19 -13 -24 -6 -3 5
1 9 9 9 8 0 15 -2 15 -3z m864 -103 c3 -5 -1 -11 -9 -14 -9 -4 -12 -1 -8 9 6
16 10 17 17 5z m3416 -136 c0 -2 -9 -9 -19 -15 -14 -7 -22 -7 -27 2 -4 6 -3 8
4 4 6 -3 13 -2 17 4 6 10 25 14 25 5z m-1210 -205 c0 -5 -2 -10 -4 -10 -3 0
-8 5 -11 10 -3 6 -1 10 4 10 6 0 11 -4 11 -10z m764 -65 c-4 -8 -11 -12 -16
-9 -6 4 -5 10 3 15 19 12 19 11 13 -6z m51 -7 c5 4 5 1 1 -6 -6 -9 -11 -10
-20 -3 -7 6 -17 7 -21 3 -5 -4 -5 -1 -1 6 6 9 11 10 20 3 7 -6 17 -7 21 -3z
m-1165 -28 c-6 -11 -14 -20 -18 -21 -4 0 -15 -2 -25 -4 -11 -2 -16 -1 -13 3 4
3 14 7 23 8 9 2 20 10 25 18 13 23 21 19 8 -4z m-75 -129 c3 -5 0 -13 -6 -17
-7 -4 -9 -3 -5 4 3 5 0 13 -6 15 -9 4 -10 6 -1 6 6 1 14 -3 18 -8z m-140 -419
c-3 -3 -11 0 -18 7 -9 10 -8 11 6 5 10 -3 15 -9 12 -12z m-520 -32 c3 -5 1
-10 -4 -10 -6 0 -11 5 -11 10 0 6 2 10 4 10 3 0 8 -4 11 -10z m-34 -13 c-1
-12 -15 -9 -19 4 -3 6 1 10 8 8 6 -3 11 -8 11 -12z m220 -40 c-10 -9 -11 -8
-5 6 3 10 9 15 12 12 3 -3 0 -11 -7 -18z"/>
<path d="M3277 5683 c-10 -9 -9 -23 1 -23 5 0 9 7 9 15 0 17 -1 18 -10 8z"/>
<path d="M3307 5673 c-3 -5 -2 -15 2 -22 7 -10 10 -10 16 -1 4 6 3 16 -3 22
-5 5 -12 6 -15 1z"/>
<path d="M2715 5650 c3 -5 8 -10 11 -10 2 0 4 5 4 10 0 6 -5 10 -11 10 -5 0
-7 -4 -4 -10z"/>
<path d="M3590 5622 c0 -5 7 -9 15 -9 8 0 12 4 9 9 -3 4 -9 8 -15 8 -5 0 -9
-4 -9 -8z"/>
<path d="M3706 5594 c-5 -14 -4 -15 9 -4 17 14 19 20 6 20 -5 0 -12 -7 -15
-16z"/>
<path d="M3946 5493 c-6 -14 -5 -15 5 -6 7 7 10 15 7 18 -3 3 -9 -2 -12 -12z"/>
<path d="M3955 5360 c3 -5 8 -10 11 -10 2 0 4 5 4 10 0 6 -5 10 -11 10 -5 0
-7 -4 -4 -10z"/>
<path d="M3960 5336 c0 -2 7 -9 15 -16 9 -7 15 -8 15 -2 0 5 -7 12 -15 16 -8
3 -15 4 -15 2z"/>
<path d="M3963 5295 c0 -8 3 -13 5 -10 3 3 12 -1 21 -7 10 -8 9 -4 -3 10 -23
26 -23 26 -23 7z"/>
<path d="M3975 5190 c-3 -5 -1 -10 4 -10 6 0 11 5 11 10 0 6 -2 10 -4 10 -3 0
-8 -4 -11 -10z"/>
<path d="M2550 5179 c0 -5 5 -7 10 -4 6 3 10 8 10 11 0 2 -4 4 -10 4 -5 0 -10
-5 -10 -11z"/>
<path d="M2483 5075 c0 -8 4 -12 9 -9 5 3 6 10 3 15 -9 13 -12 11 -12 -6z"/>
<path d="M1365 5040 c3 -5 8 -10 11 -10 2 0 4 5 4 10 0 6 -5 10 -11 10 -5 0
-7 -4 -4 -10z"/>
<path d="M1430 5033 c5 -2 8 -9 5 -13 -3 -5 -1 -11 4 -14 5 -4 8 2 7 11 -2 9
-8 18 -15 19 -6 1 -7 0 -1 -3z"/>
<path d="M2259 5028 c-8 -27 -5 -35 12 -31 11 3 22 10 25 15 4 6 -2 7 -16 3
-15 -5 -20 -4 -16 4 4 6 5 11 2 11 -3 0 -6 -1 -7 -2z"/>
<path d="M4246 4741 c-3 -5 1 -14 8 -20 10 -9 16 -9 21 -1 4 6 3 10 -2 9 -20
-3 -27 2 -13 11 9 6 10 10 3 10 -6 0 -14 -4 -17 -9z"/>
<path d="M4426 4579 c4 -8 30 -6 38 2 3 3 -5 5 -19 5 -13 0 -22 -3 -19 -7z"/>
<path d="M723 4508 c-16 -27 -12 -40 8 -23 10 10 16 22 13 26 -7 12 -11 11
-21 -3z"/>
<path d="M4560 4476 c0 -2 7 -7 16 -10 8 -3 12 -2 9 4 -6 10 -25 14 -25 6z"/>
<path d="M5388 4303 c7 -3 16 -2 19 1 4 3 -2 6 -13 5 -11 0 -14 -3 -6 -6z"/>
<path d="M519 4183 c-13 -16 -12 -17 4 -4 9 7 17 15 17 17 0 8 -8 3 -21 -13z"/>
<path d="M5513 4035 c0 -8 4 -12 9 -9 5 3 6 10 3 15 -9 13 -12 11 -12 -6z"/>
<path d="M780 3796 c0 -2 7 -9 15 -16 9 -7 15 -8 15 -2 0 5 -7 12 -15 16 -8 3
-15 4 -15 2z"/>
<path d="M5679 3582 c9 -7 10 -11 2 -15 -7 -4 -8 -5 0 -3 15 2 13 20 -3 24
-10 3 -10 2 1 -6z"/>
<path d="M5685 3539 c-4 -6 -4 -13 -1 -16 3 -3 1 -12 -4 -18 -7 -9 -5 -17 7
-26 16 -13 17 -12 5 3 -8 10 -9 19 -3 22 5 3 12 0 14 -6 4 -9 6 -10 6 -1 1 6
-3 15 -9 18 -5 3 -10 11 -10 16 0 6 5 7 10 4 6 -3 10 -1 10 4 0 14 -17 14 -25
0z"/>
<path d="M5185 3111 c-6 -11 13 -26 22 -17 4 3 1 6 -6 6 -7 0 -9 5 -6 10 3 6
4 10 1 10 -3 0 -7 -4 -11 -9z"/>
<path d="M840 2925 c-7 -9 -11 -17 -9 -20 3 -2 10 5 17 15 14 24 10 26 -8 5z"/>
<path d="M5143 2825 c0 -8 7 -15 15 -15 12 0 12 3 2 15 -7 8 -13 15 -15 15 -1
0 -2 -7 -2 -15z"/>
<path d="M511 2713 c3 -19 -2 -27 -10 -15 -7 11 -9 11 -14 -1 -6 -17 17 -17
34 0 8 8 8 13 0 18 -6 3 -11 3 -10 -2z"/>
<path d="M300 2459 c0 -5 5 -7 10 -4 6 3 10 8 10 11 0 2 -4 4 -10 4 -5 0 -10
-5 -10 -11z"/>
<path d="M5085 2463 c3 -3 0 -11 -5 -18 -7 -8 -5 -12 4 -12 14 0 16 22 3 32
-4 3 -5 2 -2 -2z"/>
<path d="M308 2433 c7 -3 16 -2 19 1 4 3 -2 6 -13 5 -11 0 -14 -3 -6 -6z"/>
<path d="M358 2303 c7 -3 16 -2 19 1 4 3 -2 6 -13 5 -11 0 -14 -3 -6 -6z"/>
<path d="M395 2191 c-3 -5 -2 -12 3 -15 5 -3 9 1 9 9 0 17 -3 19 -12 6z"/>
<path d="M5290 2126 c0 -11 30 -66 36 -66 2 0 -3 15 -12 33 -19 36 -24 44 -24
33z"/>
<path d="M470 2050 c0 -5 5 -10 11 -10 5 0 7 5 4 10 -3 6 -8 10 -11 10 -2 0
-4 -4 -4 -10z"/>
<path d="M5388 2013 c7 -3 16 -2 19 1 4 3 -2 6 -13 5 -11 0 -14 -3 -6 -6z"/>
<path d="M5449 1928 c-8 -27 -5 -36 9 -30 10 4 12 7 4 10 -7 2 -10 8 -6 13 3
5 3 9 0 9 -3 0 -6 -1 -7 -2z"/>
<path d="M525 1880 c-3 -5 -1 -10 4 -10 6 0 11 5 11 10 0 6 -2 10 -4 10 -3 0
-8 -4 -11 -10z"/>
<path d="M5346 1607 c3 -10 9 -15 12 -12 3 3 0 11 -7 18 -10 9 -11 8 -5 -6z"/>
<path d="M1306 1541 c-3 -5 2 -15 12 -22 15 -12 16 -12 5 2 -7 9 -10 19 -6 22
3 4 4 7 0 7 -3 0 -8 -4 -11 -9z"/>
<path d="M1276 1531 c-3 -5 1 -11 9 -14 9 -4 12 -1 8 9 -6 16 -10 17 -17 5z"/>
<path d="M781 1444 c0 -11 3 -14 6 -6 3 7 2 16 -1 19 -3 4 -6 -2 -5 -13z"/>
<path d="M4975 1160 c-3 -5 -1 -10 4 -10 6 0 11 5 11 10 0 6 -2 10 -4 10 -3 0
-8 -4 -11 -10z"/>
<path d="M1963 1125 c0 -8 4 -12 9 -9 5 3 6 10 3 15 -9 13 -12 11 -12 -6z"/>
<path d="M4955 1120 c-3 -5 -1 -10 4 -10 6 0 11 5 11 10 0 6 -2 10 -4 10 -3 0
-8 -4 -11 -10z"/>
<path d="M4435 1049 c-4 -5 -4 -13 -1 -16 3 -4 6 0 6 8 0 11 2 11 10 -1 6 -9
10 -10 10 -3 0 17 -17 25 -25 12z"/>
<path d="M4516 1007 c3 -10 9 -15 12 -12 3 3 0 11 -7 18 -10 9 -11 8 -5 -6z"/>
<path d="M4866 1011 c-4 -5 -2 -12 3 -15 5 -4 12 -2 15 3 4 5 2 12 -3 15 -5 4
-12 2 -15 -3z"/>
<path d="M4825 971 c-3 -5 -2 -12 3 -15 5 -3 9 1 9 9 0 17 -3 19 -12 6z"/>
<path d="M3562 948 c-7 -7 -12 -16 -12 -21 0 -5 7 -1 16 8 9 9 14 18 12 20 -2
3 -10 -1 -16 -7z"/>
<path d="M3610 956 c0 -2 7 -7 16 -10 8 -3 12 -2 9 4 -6 10 -25 14 -25 6z"/>
<path d="M4676 942 c-3 -5 1 -9 9 -9 8 0 12 4 9 9 -3 4 -7 8 -9 8 -2 0 -6 -4
-9 -8z"/>
<path d="M4714 934 c1 -8 4 -15 7 -16 2 -2 3 -1 2 1 -2 2 2 9 7 16 7 8 5 12
-4 12 -8 0 -13 -6 -12 -13z"/>
<path d="M2013 646 c0 -6 9 -13 19 -13 10 -1 18 0 18 2 0 2 -8 9 -18 14 -14 7
-19 6 -19 -3z"/>
<path d="M2033 599 c-2 -19 11 -26 21 -10 3 5 0 14 -7 19 -10 8 -13 6 -14 -9z"/>
<path d="M2360 403 c0 -6 8 -17 18 -24 16 -13 16 -13 2 6 -8 11 -16 22 -17 24
-2 2 -3 0 -3 -6z"/>
<path d="M2995 301 c-3 -5 5 -11 17 -13 13 -2 22 -9 20 -17 -3 -12 0 -12 12
-1 17 13 22 25 7 16 -5 -3 -14 1 -21 9 -14 17 -26 19 -35 6z"/>
<path d="M3117 293 c-4 -3 -7 -11 -7 -16 0 -6 3 -7 7 -4 3 4 12 2 20 -5 8 -6
13 -7 12 -2 -4 21 2 28 11 14 8 -13 10 -12 10 3 0 19 -15 23 -26 6 -5 -8 -8
-8 -13 0 -4 6 -10 8 -14 4z"/>
</g>
</svg>
